<svg width="25" height="25" viewBox="0 0 25 25" fill="none" xmlns="http://www.w3.org/2000/svg">
<path d="M12.9111 24.7549C19.5385 24.7549 24.9111 19.3823 24.9111 12.7549C24.9111 6.12747 19.5385 0.754883 12.9111 0.754883C6.28372 0.754883 0.911133 6.12747 0.911133 12.7549C0.911133 19.3823 6.28372 24.7549 12.9111 24.7549Z" fill="#0A66C2"/>
<path d="M17.1557 17.0018H15.3744V14.2127C15.3744 13.5471 15.3604 12.6916 14.4463 12.6916C13.5182 12.6916 13.3752 13.4158 13.3752 14.1635V17.0018H11.5939V11.2643H13.3049V12.0471H13.3283C13.5674 11.5971 14.1486 11.1213 15.0158 11.1213C16.8205 11.1213 17.1533 12.3096 17.1533 13.8541L17.1557 17.0018ZM9.58535 10.4791C9.01113 10.4791 8.55176 10.015 8.55176 9.44551C8.55176 8.87598 9.01348 8.41191 9.58535 8.41191C10.1572 8.41191 10.6189 8.87598 10.6189 9.44551C10.6189 10.015 10.1549 10.4791 9.58535 10.4791ZM10.4783 17.0018H8.69238V11.2643H10.4783V17.0018ZM18.0463 6.75488H7.79941C7.30957 6.75488 6.91113 7.1416 6.91113 7.62207V17.9111C6.91113 18.3893 7.30723 18.7783 7.79941 18.7783H18.0439C18.5338 18.7783 18.9346 18.3916 18.9346 17.9111V7.62207C18.9346 7.1416 18.5338 6.75488 18.0463 6.75488Z" fill="white"/>
</svg>
