<svg width="25" height="25" viewBox="0 0 25 25" fill="none" xmlns="http://www.w3.org/2000/svg">
<path d="M12.9111 24.7549C19.5385 24.7549 24.9111 19.3823 24.9111 12.7549C24.9111 6.12747 19.5385 0.754883 12.9111 0.754883C6.28372 0.754883 0.911133 6.12747 0.911133 12.7549C0.911133 19.3823 6.28372 24.7549 12.9111 24.7549Z" fill="#E4405F"/>
<path d="M12.9117 6.75488C11.2828 6.75488 11.0789 6.76191 10.4391 6.79004C9.79922 6.82051 9.36562 6.92129 8.98359 7.06895C8.58984 7.22129 8.25469 7.42754 7.91953 7.76035C7.58437 8.09316 7.38047 8.42832 7.22812 8.82441C7.08047 9.20644 6.97969 9.64238 6.94922 10.2799C6.91875 10.9197 6.91406 11.1236 6.91406 12.7525C6.91406 14.3814 6.92109 14.5854 6.94922 15.2252C6.97969 15.8627 7.08047 16.2986 7.22812 16.6807C7.38047 17.0744 7.58672 17.4096 7.91953 17.7447C8.25234 18.0775 8.5875 18.2838 8.98359 18.4361C9.36562 18.5838 9.80156 18.6846 10.4391 18.715C11.0789 18.7455 11.2828 18.7502 12.9117 18.7502C14.5406 18.7502 14.7445 18.7432 15.3844 18.715C16.0219 18.6846 16.4578 18.5838 16.8398 18.4361C17.2336 18.2838 17.5688 18.0775 17.9039 17.7447C18.2367 17.4119 18.443 17.0768 18.5953 16.6807C18.743 16.2986 18.8438 15.8627 18.8742 15.2252C18.9047 14.5854 18.9094 14.3814 18.9094 12.7525C18.9094 11.1236 18.9023 10.9197 18.8742 10.2799C18.8438 9.64238 18.743 9.20644 18.5953 8.82441C18.443 8.43066 18.2367 8.09551 17.9039 7.76035C17.5711 7.42754 17.2359 7.22129 16.8398 7.06895C16.4578 6.92129 16.0219 6.82051 15.3844 6.79004C14.7445 6.76191 14.5406 6.75488 12.9117 6.75488ZM12.9117 7.83535C14.5125 7.83535 14.7047 7.84238 15.3375 7.87051C15.9234 7.89863 16.2398 7.99473 16.4508 8.0791C16.732 8.18691 16.9313 8.31816 17.1422 8.52676C17.3508 8.7377 17.482 8.93691 17.5898 9.21816C17.6719 9.4291 17.7703 9.74551 17.7961 10.3314C17.8242 10.9643 17.8313 11.1541 17.8313 12.7572C17.8313 14.3604 17.8242 14.5502 17.7938 15.183C17.7633 15.7689 17.6648 16.0854 17.5828 16.2963C17.4703 16.5775 17.3438 16.7768 17.1328 16.9877C16.9242 17.1963 16.7203 17.3275 16.4438 17.4354C16.2328 17.5174 15.9117 17.6158 15.3258 17.6416C14.6883 17.6697 14.5008 17.6768 12.8953 17.6768C11.2898 17.6768 11.1023 17.6697 10.4648 17.6393C9.87891 17.6088 9.55781 17.5104 9.34687 17.4283C9.06328 17.3158 8.86641 17.1893 8.65781 16.9783C8.44687 16.7697 8.31328 16.5658 8.20781 16.2893C8.12578 16.0783 8.02734 15.7572 7.99687 15.1713C7.97344 14.5408 7.96641 14.3463 7.96641 12.7502C7.96641 11.1518 7.97344 10.9572 7.99687 10.3197C8.02734 9.73379 8.12344 9.41269 8.20781 9.20176C8.31328 8.91582 8.44687 8.72129 8.65781 8.51035C8.86641 8.30176 9.06328 8.16582 9.34687 8.06035C9.55781 7.97832 9.87187 7.87988 10.4578 7.84941C11.0953 7.82598 11.2828 7.81895 12.8883 7.81895L12.9117 7.83535ZM12.9117 9.67285C11.2102 9.67285 9.82969 11.0533 9.82969 12.7549C9.82969 14.4564 11.2102 15.8369 12.9117 15.8369C14.6133 15.8369 15.9938 14.4564 15.9938 12.7549C15.9938 11.0533 14.6133 9.67285 12.9117 9.67285ZM12.9117 14.7541C11.8078 14.7541 10.9125 13.8588 10.9125 12.7549C10.9125 11.651 11.8078 10.7557 12.9117 10.7557C14.0156 10.7557 14.9109 11.651 14.9109 12.7549C14.9109 13.8588 14.0156 14.7541 12.9117 14.7541ZM16.8352 9.55332C16.8352 9.95176 16.5117 10.2729 16.1156 10.2729C15.7172 10.2729 15.3961 9.94941 15.3961 9.55332C15.3961 9.15723 15.7195 8.83379 16.1156 8.83379C16.5117 8.83145 16.8352 9.15488 16.8352 9.55332Z" fill="white"/>
</svg>
