<svg width="25" height="25" viewBox="0 0 25 25" fill="none" xmlns="http://www.w3.org/2000/svg">
<path d="M12.9111 24.7549C19.5385 24.7549 24.9111 19.3823 24.9111 12.7549C24.9111 6.12747 19.5385 0.754883 12.9111 0.754883C6.28372 0.754883 0.911133 6.12747 0.911133 12.7549C0.911133 19.3823 6.28372 24.7549 12.9111 24.7549Z" fill="#1DA1F2"/>
<path d="M19.1449 9.07047C18.7043 9.265 18.2332 9.39625 17.7363 9.45719C18.2426 9.1525 18.6316 8.67203 18.8145 8.10016C18.341 8.37672 17.8137 8.57828 17.2559 8.69078C16.8082 8.21266 16.173 7.91266 15.4652 7.91266C14.1105 7.91266 13.0113 9.01188 13.0113 10.3642C13.0113 10.5588 13.0348 10.7463 13.0746 10.9244C11.0355 10.8283 9.22617 9.8486 8.0168 8.36735C7.80352 8.72828 7.68398 9.14547 7.68398 9.6025C7.68398 10.4556 8.11758 11.2056 8.77617 11.6463C8.37305 11.6322 7.9957 11.522 7.66523 11.3392V11.3697C7.66523 12.5603 8.50898 13.5517 9.63398 13.7767C9.42773 13.833 9.20977 13.8611 8.98711 13.8611C8.83008 13.8611 8.68008 13.847 8.53008 13.8189C8.84414 14.7939 9.74883 15.5041 10.827 15.5228C9.99023 16.1814 8.92617 16.5728 7.78477 16.5728C7.59023 16.5728 7.3957 16.5611 7.20117 16.54C8.29336 17.2361 9.58008 17.6416 10.9699 17.6416C15.4816 17.6416 17.9496 13.9033 17.9496 10.6666C17.9496 10.5634 17.9496 10.458 17.9426 10.3525C18.4207 10.008 18.8402 9.57438 19.1684 9.08219L19.1449 9.07047Z" fill="white"/>
</svg>
