<svg width="25" height="25" viewBox="0 0 25 25" fill="none" xmlns="http://www.w3.org/2000/svg">
<path d="M12.9111 24.7549C19.5385 24.7549 24.9111 19.3823 24.9111 12.7549C24.9111 6.12747 19.5385 0.754883 12.9111 0.754883C6.28372 0.754883 0.911133 6.12747 0.911133 12.7549C0.911133 19.3823 6.28372 24.7549 12.9111 24.7549Z" fill="#BD081C"/>
<path d="M12.9041 6.75488C9.59473 6.75488 6.91113 9.43848 6.91113 12.7479C6.91113 15.2885 8.49082 17.4564 10.7197 18.3283C10.6682 17.8549 10.6213 17.126 10.7408 16.608C10.851 16.1393 11.4439 13.6291 11.4439 13.6291C11.4439 13.6291 11.2635 13.2682 11.2635 12.7385C11.2635 11.9064 11.7463 11.283 12.3486 11.283C12.8596 11.283 13.108 11.6674 13.108 12.1268C13.108 12.6424 12.7822 13.4111 12.6111 14.1236C12.4682 14.7213 12.9111 15.2064 13.4994 15.2064C14.5635 15.2064 15.3838 14.0838 15.3838 12.4619C15.3838 11.0322 14.3525 10.0268 12.8807 10.0268C11.1768 10.0268 10.176 11.3088 10.176 12.626C10.176 13.1416 10.3729 13.6971 10.6213 13.9971C10.6705 14.058 10.6775 14.1096 10.6635 14.1705C10.6189 14.358 10.5158 14.7705 10.4971 14.8525C10.4713 14.965 10.4104 14.9885 10.2955 14.9346C9.54785 14.59 9.0791 13.4955 9.0791 12.6119C9.0791 10.7229 10.4525 8.98613 13.04 8.98613C15.1189 8.98613 16.7361 10.4697 16.7361 12.4479C16.7361 14.515 15.433 16.1791 13.6189 16.1791C13.0119 16.1791 12.4424 15.865 12.2408 15.49L11.8658 16.915C11.7322 17.4377 11.3643 18.0916 11.1158 18.4877C11.6783 18.6611 12.2689 18.7549 12.89 18.7549C16.1924 18.7549 18.883 16.0713 18.883 12.7619C18.883 9.45019 16.1947 6.76895 12.89 6.76895L12.9041 6.75488Z" fill="white"/>
</svg>
