<svg width="25" height="25" viewBox="0 0 25 25" fill="none" xmlns="http://www.w3.org/2000/svg">
<path d="M12.9111 24.7549C19.5385 24.7549 24.9111 19.3823 24.9111 12.7549C24.9111 6.12747 19.5385 0.754883 12.9111 0.754883C6.28372 0.754883 0.911133 6.12747 0.911133 12.7549C0.911133 19.3823 6.28372 24.7549 12.9111 24.7549Z" fill="#3C5A99"/>
<path d="M13.8437 18.7549V13.2893H15.6858L15.9624 11.1495H13.8437V9.78773C13.8437 9.16898 14.0147 8.74945 14.9007 8.74945H16.0233V6.84164C15.8288 6.81586 15.1585 6.75726 14.378 6.75726C12.7491 6.75726 11.6335 7.75101 11.6335 9.57679V11.1518H9.79834V13.2916H11.6335V18.7549H13.8437Z" fill="white"/>
</svg>
