<svg width="33" height="33" viewBox="0 0 33 33" fill="none" xmlns="http://www.w3.org/2000/svg">
<path d="M19.4138 7.64177V6.30844C19.4138 4.84177 18.2138 3.64177 16.7472 3.64177H11.4138C9.94715 3.64177 8.74715 4.84177 8.74715 6.30844V7.64177C5.81382 7.64177 3.41382 10.0418 3.41382 12.9751V27.6418C3.41382 29.1084 4.61382 30.3084 6.08048 30.3084H21.0138L18.3472 27.6418H6.08048V22.3084H8.74715V24.9751H10.0805V22.3084H16.7472V20.9751H6.08048V12.9751C6.08048 11.5084 7.28048 10.3084 8.74715 10.3084H19.4138C20.8805 10.3084 22.0805 11.5084 22.0805 12.9751V16.9751H24.7472V12.9751C24.7472 10.0418 22.3472 7.64177 19.4138 7.64177ZM16.7472 7.64177H11.4138V6.30844H16.7472V7.64177ZM14.0805 12.9751L11.4138 15.6418L14.0805 18.3084L16.7472 15.6418L14.0805 12.9751ZM29.8138 24.7084L25.0138 19.9084C24.7472 19.7751 24.4805 19.6418 24.2138 19.6418H20.4805C19.9472 19.6418 19.4138 20.1751 19.4138 20.7084V24.4418C19.4138 24.7084 19.5471 24.9751 19.6805 25.2418L24.4805 30.0418C24.6138 30.1751 24.8805 30.3084 25.2805 30.3084C25.5471 30.3084 25.8138 30.1751 26.0805 30.0418L29.8138 26.3084C29.9471 26.1751 30.0805 25.9084 30.0805 25.5084C30.0805 25.2418 29.9471 24.9751 29.8138 24.7084ZM21.2805 22.3084C20.8805 22.3084 20.4805 21.9084 20.4805 21.5084C20.4805 21.1084 20.8805 20.7084 21.2805 20.7084C21.6805 20.7084 22.0805 21.1084 22.0805 21.5084C22.0805 21.9084 21.6805 22.3084 21.2805 22.3084Z" fill="#009DDB"/>
</svg>
