<svg width="25" height="25" viewBox="0 0 25 25" fill="none" xmlns="http://www.w3.org/2000/svg">
<g clip-path="url(#clip0_1_1471)">
<path d="M22.2354 3.62988H2.23535C1.14535 3.66988 0.275352 4.53988 0.235352 5.62988V19.6299C0.275352 20.7199 1.14535 21.5899 2.23535 21.6299H22.2354C23.3254 21.5899 24.1954 20.7199 24.2354 19.6299V5.62988C24.1954 4.53988 23.3254 3.66988 22.2354 3.62988ZM22.2354 19.6299H2.23535V5.62988H22.2354V19.6299ZM14.2354 17.6299V16.3799C14.2354 14.7199 10.8954 13.8799 9.23535 13.8799C7.57535 13.8799 4.23535 14.7199 4.23535 16.3799V17.6299H14.2354ZM9.23535 7.62988C8.57231 7.62988 7.93643 7.89327 7.46758 8.36212C6.99874 8.83096 6.73535 9.46684 6.73535 10.1299C6.73535 10.4582 6.80002 10.7833 6.92565 11.0866C7.05129 11.3899 7.23544 11.6655 7.46758 11.8976C7.93643 12.3665 8.57231 12.6299 9.23535 12.6299C9.56366 12.6299 9.88875 12.5652 10.1921 12.4396C10.4954 12.3139 10.771 12.1298 11.0031 11.8976C11.2353 11.6655 11.4194 11.3899 11.5451 11.0866C11.6707 10.7833 11.7354 10.4582 11.7354 10.1299C11.7354 9.80158 11.6707 9.47649 11.5451 9.17317C11.4194 8.86986 11.2353 8.59426 11.0031 8.36212C10.771 8.12997 10.4954 7.94582 10.1921 7.82018C9.88875 7.69455 9.56366 7.62988 9.23535 7.62988ZM14.2354 7.62988V8.62988H20.2354V7.62988H14.2354ZM14.2354 9.62988V10.6299H20.2354V9.62988H14.2354ZM14.2354 11.6299V12.6299H18.2354V11.6299H14.2354Z" fill="#009DDB"/>
</g>
<defs>
<clipPath id="clip0_1_1471">
<rect width="24" height="24" fill="white" transform="translate(0.235352 0.629883)"/>
</clipPath>
</defs>
</svg>
