<svg width="33" height="33" viewBox="0 0 33 33" fill="none" xmlns="http://www.w3.org/2000/svg">
<g clip-path="url(#clip0_35_109)">
<path d="M16.747 3.64176C10.8537 3.64176 6.08032 4.30843 6.08032 8.9751V22.3084C6.08032 23.4818 6.60032 24.5351 7.41366 25.2684V27.6418C7.41366 28.3751 8.01366 28.9751 8.74699 28.9751H10.0803C10.8137 28.9751 11.4137 28.3751 11.4137 27.6418V26.3084H22.0803V27.6418C22.0803 28.3751 22.6803 28.9751 23.4137 28.9751H24.747C25.4803 28.9751 26.0803 28.3751 26.0803 27.6418V25.2684C26.8937 24.5351 27.4137 23.4818 27.4137 22.3084V8.9751C27.4137 4.30843 22.6403 3.64176 16.747 3.64176ZM24.2937 7.62843H9.20032C9.93366 6.92176 11.827 6.30843 16.747 6.30843C21.667 6.30843 23.5603 6.92176 24.2937 7.62843ZM24.747 10.2951V14.3084H8.74699V10.2951H24.747ZM24.2937 23.2818L23.907 23.6418H9.58699L9.20032 23.2818C9.02699 23.1351 8.74699 22.8018 8.74699 22.3084V16.9751H24.747V22.3084C24.747 22.8018 24.467 23.1351 24.2937 23.2818Z" fill="#009DDB"/>
<path d="M12.0803 22.3084C13.1849 22.3084 14.0803 21.413 14.0803 20.3084C14.0803 19.2039 13.1849 18.3084 12.0803 18.3084C10.9758 18.3084 10.0803 19.2039 10.0803 20.3084C10.0803 21.413 10.9758 22.3084 12.0803 22.3084Z" fill="#009DDB"/>
<path d="M21.4138 22.3084C22.5184 22.3084 23.4138 21.413 23.4138 20.3084C23.4138 19.2039 22.5184 18.3084 21.4138 18.3084C20.3092 18.3084 19.4138 19.2039 19.4138 20.3084C19.4138 21.413 20.3092 22.3084 21.4138 22.3084Z" fill="#009DDB"/>
</g>
<defs>
<clipPath id="clip0_35_109">
<rect width="32" height="32" fill="white" transform="translate(0.74707 0.975098)"/>
</clipPath>
</defs>
</svg>
