<svg width="33" height="33" viewBox="0 0 33 33" fill="none" xmlns="http://www.w3.org/2000/svg">
<path d="M12.747 8.9751V11.6418H10.0803V8.9751H7.41366V11.6418H4.74699V8.9751H2.08032V24.9751H4.74699V22.3084H7.41366V24.9751H10.0803V22.3084H12.747V24.9751H15.4137V22.3084H18.0803V24.9751H20.747V22.3084H23.4137V24.9751H26.0803V22.3084H28.747V24.9751H31.4137V8.9751H28.747V11.6418H26.0803V8.9751H23.4137V11.6418H20.747V8.9751H18.0803V11.6418H15.4137V8.9751H12.747ZM4.74699 14.3084H7.41366V19.6418H4.74699V14.3084ZM10.0803 14.3084H12.747V19.6418H10.0803V14.3084ZM15.4137 14.3084H18.0803V19.6418H15.4137V14.3084ZM20.747 14.3084H23.4137V19.6418H20.747V14.3084ZM26.0803 14.3084H28.747V19.6418H26.0803V14.3084Z" fill="#009DDB"/>
</svg>
