<svg width="33" height="33" viewBox="0 0 33 33" fill="none" xmlns="http://www.w3.org/2000/svg">
<path d="M24.747 3.64176H8.74699C8.03974 3.64176 7.36147 3.92272 6.86137 4.42281C6.36127 4.92291 6.08032 5.60119 6.08032 6.30843V27.6418C6.08032 28.349 6.36127 29.0273 6.86137 29.5274C7.36147 30.0275 8.03974 30.3084 8.74699 30.3084H24.747C25.4542 30.3084 26.1325 30.0275 26.6326 29.5274C27.1327 29.0273 27.4137 28.349 27.4137 27.6418V6.30843C27.4137 5.60119 27.1327 4.92291 26.6326 4.42281C26.1325 3.92272 25.4542 3.64176 24.747 3.64176Z" stroke="#009DDB" stroke-width="3" stroke-linecap="round" stroke-linejoin="round"/>
<path d="M12.7471 22.3084L13.2111 21.9884C15.1644 20.6378 18.3311 20.6378 20.2831 21.9884L20.7471 22.3084" stroke="#009DDB" stroke-width="3" stroke-linecap="round" stroke-linejoin="round"/>
<path d="M11.4138 10.3084H11.4272" stroke="#009DDB" stroke-width="3" stroke-linecap="round" stroke-linejoin="round"/>
<path d="M22.0803 10.3084H22.0937" stroke="#009DDB" stroke-width="3" stroke-linecap="round" stroke-linejoin="round"/>
<path d="M16.7471 10.3084H16.7604" stroke="#009DDB" stroke-width="3" stroke-linecap="round" stroke-linejoin="round"/>
<path d="M16.7471 15.6418H16.7604" stroke="#009DDB" stroke-width="3" stroke-linecap="round" stroke-linejoin="round"/>
<path d="M22.0803 15.6418H22.0937" stroke="#009DDB" stroke-width="3" stroke-linecap="round" stroke-linejoin="round"/>
<path d="M11.4138 15.6418H11.4272" stroke="#009DDB" stroke-width="3" stroke-linecap="round" stroke-linejoin="round"/>
<path d="M14.0803 30.3084V21.6418M19.4137 21.6418V30.3084" stroke="#009DDB" stroke-width="3" stroke-linecap="round" stroke-linejoin="round"/>
</svg>
