<svg width="33" height="33" viewBox="0 0 33 33" fill="none" xmlns="http://www.w3.org/2000/svg">
<path d="M26.0804 4.9751H7.41374C5.94098 4.9751 4.74707 6.169 4.74707 7.64176V26.3084C4.74707 27.7812 5.94098 28.9751 7.41374 28.9751H26.0804C27.5532 28.9751 28.7471 27.7812 28.7471 26.3084V7.64176C28.7471 6.169 27.5532 4.9751 26.0804 4.9751Z" stroke="#009DDB" stroke-width="3" stroke-linecap="round" stroke-linejoin="round"/>
<path d="M12.747 15.6418C14.2197 15.6418 15.4137 14.4479 15.4137 12.9751C15.4137 11.5023 14.2197 10.3084 12.747 10.3084C11.2742 10.3084 10.0803 11.5023 10.0803 12.9751C10.0803 14.4479 11.2742 15.6418 12.747 15.6418Z" stroke="#009DDB" stroke-width="3" stroke-linecap="round" stroke-linejoin="round"/>
<path d="M28.7471 20.9751L24.6324 16.8604C24.1323 16.3605 23.4542 16.0797 22.7471 16.0797C22.04 16.0797 21.3618 16.3605 20.8617 16.8604L8.74707 28.9751" stroke="#009DDB" stroke-width="3" stroke-linecap="round" stroke-linejoin="round"/>
</svg>
