<svg width="25" height="25" viewBox="0 0 25 25" fill="none" xmlns="http://www.w3.org/2000/svg">
<path d="M20.4282 10.7739C20.4282 16.7739 12.4282 22.7739 12.4282 22.7739C12.4282 22.7739 4.42822 16.7739 4.42822 10.7739C4.42822 8.65219 5.27108 6.61736 6.77137 5.11707C8.27166 3.61678 10.3065 2.77393 12.4282 2.77393C14.55 2.77393 16.5848 3.61678 18.0851 5.11707C19.5854 6.61736 20.4282 8.65219 20.4282 10.7739Z" fill="#009DDB" stroke="#009DDB" stroke-width="2" stroke-linecap="round" stroke-linejoin="round"/>
<path d="M12.4282 13.7739C14.0851 13.7739 15.4282 12.4308 15.4282 10.7739C15.4282 9.11707 14.0851 7.77393 12.4282 7.77393C10.7714 7.77393 9.42822 9.11707 9.42822 10.7739C9.42822 12.4308 10.7714 13.7739 12.4282 13.7739Z" fill="#F8F8F8" stroke="#F8F8F8" stroke-width="2" stroke-linecap="round" stroke-linejoin="round"/>
</svg>
