<svg width="25" height="25" viewBox="0 0 25 25" fill="none" xmlns="http://www.w3.org/2000/svg">
<path d="M20.373 10.7739C20.373 16.7739 12.373 22.7739 12.373 22.7739C12.373 22.7739 4.37305 16.7739 4.37305 10.7739C4.37305 8.65219 5.2159 6.61736 6.71619 5.11707C8.21648 3.61678 10.2513 2.77393 12.373 2.77393C14.4948 2.77393 16.5296 3.61678 18.0299 5.11707C19.5302 6.61736 20.373 8.65219 20.373 10.7739Z" fill="#009DDB" stroke="#009DDB" stroke-width="2" stroke-linecap="round" stroke-linejoin="round"/>
<path d="M12.373 13.7739C14.0299 13.7739 15.373 12.4308 15.373 10.7739C15.373 9.11707 14.0299 7.77393 12.373 7.77393C10.7162 7.77393 9.37305 9.11707 9.37305 10.7739C9.37305 12.4308 10.7162 13.7739 12.373 13.7739Z" fill="#F8F8F8" stroke="#F8F8F8" stroke-width="2" stroke-linecap="round" stroke-linejoin="round"/>
</svg>
