<svg width="33" height="33" viewBox="0 0 33 33" fill="none" xmlns="http://www.w3.org/2000/svg">
<path d="M24.4804 26.5751L22.0804 15.6418L26.7471 10.9751C28.7471 8.9751 29.4137 6.30843 28.7471 4.9751C27.4137 4.30843 24.7471 4.9751 22.7471 6.9751L18.0804 11.6418L7.14707 9.24176C6.4804 9.10843 5.94707 9.3751 5.6804 9.90843L5.2804 10.5751C5.01374 11.2418 5.14707 11.9084 5.6804 12.3084L12.7471 16.9751L10.0804 20.9751H6.0804L4.74707 22.3084L8.74707 24.9751L11.4137 28.9751L12.7471 27.6418V23.6418L16.7471 20.9751L21.4137 28.0418C21.8137 28.5751 22.4804 28.7084 23.1471 28.4418L23.8137 28.1751C24.3471 27.7751 24.6137 27.2418 24.4804 26.5751Z" stroke="#009DDB" stroke-width="3" stroke-linecap="round" stroke-linejoin="round"/>
</svg>
