<svg width="17" height="17" viewBox="0 0 17 17" fill="none" xmlns="http://www.w3.org/2000/svg">
<path d="M13.4019 5.96322C14.5086 5.96322 15.4019 6.85655 15.4019 7.96322V11.9632H12.7353V14.6299H4.73527V11.9632H2.0686V7.96322C2.0686 6.85655 2.96194 5.96322 4.0686 5.96322H4.73527V2.62988H12.7353V5.96322H13.4019ZM6.0686 3.96322V5.96322H11.4019V3.96322H6.0686ZM11.4019 13.2965V10.6299H6.0686V13.2965H11.4019ZM12.7353 10.6299H14.0686V7.96322C14.0686 7.59655 13.7686 7.29655 13.4019 7.29655H4.0686C3.70194 7.29655 3.40194 7.59655 3.40194 7.96322V10.6299H4.73527V9.29655H12.7353V10.6299ZM13.4019 8.29655C13.4019 8.66322 13.1019 8.96322 12.7353 8.96322C12.3686 8.96322 12.0686 8.66322 12.0686 8.29655C12.0686 7.92988 12.3686 7.62988 12.7353 7.62988C13.1019 7.62988 13.4019 7.92988 13.4019 8.29655Z" fill="#009DDB"/>
</svg>
