<svg width="14" height="15" viewBox="0 0 14 15" fill="none" xmlns="http://www.w3.org/2000/svg">
<path d="M3.41108 7.12988H4.81108V8.52988H3.41108V7.12988ZM13.2111 2.92988V12.7299C13.2111 13.5069 12.5881 14.1299 11.8111 14.1299H2.01108C1.23408 14.1299 0.611084 13.4999 0.611084 12.7299V2.92988C0.611084 2.15988 1.24108 1.52988 2.01108 1.52988H2.71108V0.129883H4.11108V1.52988H9.71108V0.129883H11.1111V1.52988H11.8111C12.5881 1.52988 13.2111 2.15988 13.2111 2.92988ZM2.01108 4.32988H11.8111V2.92988H2.01108V4.32988ZM11.8111 12.7299V5.72988H2.01108V12.7299H11.8111ZM9.01108 8.52988V7.12988H10.4111V8.52988H9.01108ZM6.21108 8.52988V7.12988H7.61108V8.52988H6.21108ZM3.41108 9.92988H4.81108V11.3299H3.41108V9.92988ZM9.01108 11.3299V9.92988H10.4111V11.3299H9.01108ZM6.21108 11.3299V9.92988H7.61108V11.3299H6.21108Z" fill="#002234"/>
</svg>
