<svg width="33" height="33" viewBox="0 0 33 33" fill="none" xmlns="http://www.w3.org/2000/svg">
<path d="M16.7471 28.9751C19.9297 28.9751 22.9819 27.7108 25.2324 25.4604C27.4828 23.2099 28.7471 20.1577 28.7471 16.9751H4.74707C4.74707 20.1577 6.01135 23.2099 8.26179 25.4604C10.5122 27.7108 13.5645 28.9751 16.7471 28.9751Z" stroke="#009DDB" stroke-width="3" stroke-linecap="round" stroke-linejoin="round"/>
<path d="M10.0803 28.9751H23.4137" stroke="#009DDB" stroke-width="3" stroke-linecap="round" stroke-linejoin="round"/>
<path d="M26.7471 16.9751L30.0804 8.9751" stroke="#009DDB" stroke-width="3" stroke-linecap="round" stroke-linejoin="round"/>
<path d="M22.4138 4.9751C22.7738 5.10843 23.4805 5.68176 23.4138 6.78843C23.3338 7.8951 22.1738 8.38843 22.0805 9.48176C22.0138 10.5218 22.5338 11.1351 23.0538 11.6418" stroke="#009DDB" stroke-width="3" stroke-linecap="round" stroke-linejoin="round"/>
<path d="M15.7471 4.9751C16.1071 5.10843 16.8138 5.68176 16.7338 6.78843C16.6671 7.8951 15.4938 8.38843 15.4271 9.48176C15.3471 10.5218 15.8671 11.1351 16.3871 11.6418" stroke="#009DDB" stroke-width="3" stroke-linecap="round" stroke-linejoin="round"/>
<path d="M9.08034 4.9751C9.44034 5.10843 10.147 5.68176 10.0803 6.78843C10.0003 7.8951 8.84034 8.38843 8.747 9.48176C8.68034 10.5218 9.20034 11.1351 9.73367 11.6418" stroke="#009DDB" stroke-width="3" stroke-linecap="round" stroke-linejoin="round"/>
</svg>
