<svg width="14" height="14" viewBox="0 0 14 14" fill="none" xmlns="http://www.w3.org/2000/svg">
<path d="M3.7353 7H5.1353V8.4H3.7353V7ZM13.5353 2.8V12.6C13.5353 13.377 12.9123 14 12.1353 14H2.3353C1.5583 14 0.935303 13.37 0.935303 12.6V2.8C0.935303 2.03 1.5653 1.4 2.3353 1.4H3.0353V0H4.4353V1.4H10.0353V0H11.4353V1.4H12.1353C12.9123 1.4 13.5353 2.03 13.5353 2.8ZM2.3353 4.2H12.1353V2.8H2.3353V4.2ZM12.1353 12.6V5.6H2.3353V12.6H12.1353ZM9.3353 8.4V7H10.7353V8.4H9.3353ZM6.5353 8.4V7H7.9353V8.4H6.5353ZM3.7353 9.8H5.1353V11.2H3.7353V9.8ZM9.3353 11.2V9.8H10.7353V11.2H9.3353ZM6.5353 11.2V9.8H7.9353V11.2H6.5353Z" fill="#8F8F8F"/>
</svg>
