<svg width="33" height="33" viewBox="0 0 33 33" fill="none" xmlns="http://www.w3.org/2000/svg">
<path d="M28.7471 27.0684L26.8404 28.9751L18.2537 20.3884L20.1604 18.4818L28.7471 27.0684ZM18.2404 4.9751C14.8004 4.9751 11.3604 6.30843 8.74706 8.90843L8.70706 8.92176C3.41373 14.1884 3.41373 22.7351 8.70706 28.0018L27.7737 8.92176C25.1471 6.30843 21.6937 4.9751 18.2404 4.9751ZM8.93373 24.0018C7.94706 22.3484 7.41373 20.4551 7.41373 18.4684C7.41373 17.2284 7.62706 16.0418 8.02706 14.9084C8.28039 17.4551 9.21373 19.9618 10.7871 22.1618L8.93373 24.0018ZM12.7471 20.2151C10.9204 17.4818 10.2404 14.2151 10.8804 11.1084C11.6537 10.9751 12.4271 10.8684 13.2137 10.8684C15.6137 10.8684 17.9471 11.6018 19.9871 12.9751L12.7471 20.2151ZM14.6804 8.2551C15.8137 7.8551 17.0004 7.64176 18.2404 7.64176C20.2271 7.64176 22.1204 8.1751 23.7737 9.16176L21.9204 11.0151C19.7204 9.44176 17.2271 8.50843 14.6804 8.2551Z" fill="#009DDB"/>
</svg>
