<svg width="596" height="564" viewBox="0 0 596 564" fill="none" xmlns="http://www.w3.org/2000/svg">
<g filter="url(#filter0_d_40_1821)">
<path d="M494.373 97.635H483.066L471.13 103.289L466.732 111.455L471.13 117.737V126.532L448.515 137.211L440.977 145.378L420.874 150.403L405.798 159.198L401.4 164.223L381.298 169.877L372.503 174.275L346.747 178.672H329.158H319.107L322.876 183.069L319.107 190.608H312.825V204.428L319.107 209.453L312.825 220.761L307.8 227.671V232.068L258.801 235.838H236.186L231.789 240.235L212.943 244.004H197.866L190.956 250.286H167.084H158.29L140.072 255.312H133.162L136.394 260.722L148.239 264.734L158.29 267.824L161.647 270.783L168.473 273.543L174.668 276.702L182.165 278.872L188.51 281.335V289.131L201.635 294.888L206.032 302.426V309.964L209.173 316.874H212.943L226.763 320.644H236.186V324.413V329.438L231.789 336.348H226.763V340.746V345.143V350.797L219.224 354.566L212.943 358.335L206.032 363.361V370.271L190.956 374.668L184.046 379.066H175.879V382.835L158.29 390.373H151.38L148.239 399.168L133.162 407.334L124.995 414.244L116.829 418.014H108.034L101.124 421.783H111.175L116.829 427.437L124.995 436.859L140.072 445.654L133.162 455.705L116.829 458.218" stroke="#009DDB" stroke-width="2" stroke-linecap="round"/>
</g>
<defs>
<filter id="filter0_d_40_1821" x="0.645142" y="0.63501" width="594.728" height="562.583" filterUnits="userSpaceOnUse" color-interpolation-filters="sRGB">
<feFlood flood-opacity="0" result="BackgroundImageFix"/>
<feColorMatrix in="SourceAlpha" type="matrix" values="0 0 0 0 0 0 0 0 0 0 0 0 0 0 0 0 0 0 127 0" result="hardAlpha"/>
<feOffset dy="4"/>
<feGaussianBlur stdDeviation="50"/>
<feComposite in2="hardAlpha" operator="out"/>
<feColorMatrix type="matrix" values="0 0 0 0 0.027451 0 0 0 0 0.2 0 0 0 0 0.290196 0 0 0 0.1 0"/>
<feBlend mode="normal" in2="BackgroundImageFix" result="effect1_dropShadow_40_1821"/>
<feBlend mode="normal" in="SourceGraphic" in2="effect1_dropShadow_40_1821" result="shape"/>
</filter>
</defs>
</svg>
